<svg width="48" height="48" viewBox="0 0 48 48" fill="none" xmlns="http://www.w3.org/2000/svg">
<path d="M24 18V26M24 34H24.02M20.58 7.72004L3.63998 36C3.29072 36.6049 3.10591 37.2906 3.10396 37.9891C3.102 38.6875 3.28296 39.3743 3.62883 39.9811C3.97471 40.5879 4.47343 41.0935 5.0754 41.4477C5.67736 41.802 6.36158 41.9924 7.05998 42H40.94C41.6384 41.9924 42.3226 41.802 42.9246 41.4477C43.5265 41.0935 44.0253 40.5879 44.3711 39.9811C44.717 39.3743 44.898 38.6875 44.896 37.9891C44.894 37.2906 44.7092 36.6049 44.36 36L27.42 7.72004C27.0634 7.13226 26.5614 6.64628 25.9624 6.30901C25.3633 5.97174 24.6875 5.79456 24 5.79456C23.3125 5.79456 22.6366 5.97174 22.0376 6.30901C21.4385 6.64628 20.9365 7.13226 20.58 7.72004Z" stroke="#EC221F" stroke-width="4" stroke-linecap="round" stroke-linejoin="round"/>
</svg>
