<svg width="408" height="391" viewBox="0 0 408 391" fill="none" xmlns="http://www.w3.org/2000/svg">
<g clip-path="url(#clip0_87_46)">
<circle cx="212" cy="190" r="180" fill="#D9D9D9" stroke="black" stroke-width="4"/>
<path d="M249.833 226.75V215.917C249.833 210.17 247.814 204.659 244.22 200.596C240.625 196.533 235.75 194.25 230.667 194.25H192.333C187.25 194.25 182.375 196.533 178.78 200.596C175.186 204.659 173.167 210.17 173.167 215.917V226.75M230.667 150.917C230.667 162.883 222.085 172.583 211.5 172.583C200.915 172.583 192.333 162.883 192.333 150.917C192.333 138.95 200.915 129.25 211.5 129.25C222.085 129.25 230.667 138.95 230.667 150.917Z" stroke="#1E1E1E" stroke-width="4" stroke-linecap="round" stroke-linejoin="round"/>
</g>
<defs>
<clipPath id="clip0_87_46">
<path d="M0 12C0 5.37259 5.37258 0 12 0H396C402.627 0 408 5.37258 408 12V379C408 385.627 402.627 391 396 391H12C5.37259 391 0 385.627 0 379V12Z" fill="white"/>
</clipPath>
</defs>
</svg>
