<svg width="586" height="574" viewBox="0 0 586 574" fill="none" xmlns="http://www.w3.org/2000/svg">
<path d="M490.05 537.819H79.5693C62.3153 537.819 48.3765 521.692 48.3765 501.729V37.0902C48.3765 17.1272 62.3153 1 79.5693 1H490.125C507.379 1 521.318 17.1272 521.318 37.0902V501.642C521.242 521.605 507.304 537.819 490.05 537.819Z" stroke="white" stroke-width="1.2622" stroke-miterlimit="10"/>
<path d="M48.301 62.3707H521.242" stroke="white" stroke-width="1.2622" stroke-miterlimit="10"/>
<path d="M333.368 215.411H275.578L246.721 273.382L275.578 331.266H333.368L362.3 273.382L333.368 215.411Z" fill="#2E1C66"/>
<path d="M333.368 215.411H275.578L246.721 273.382L275.578 331.266H333.368L362.3 273.382L333.368 215.411Z" stroke="white" stroke-width="1.5341" stroke-miterlimit="10"/>
<path d="M358.156 281.228H337.512L327.189 301.975L337.512 322.635H358.156L368.479 301.975L358.156 281.228Z" fill="white"/>
<path d="M342.908 312.186L356.387 296.591L352.87 292.523L339.391 308.118L342.908 312.186Z" fill="#F94E4E"/>
<path d="M339.34 296.665L352.819 312.26L356.335 308.192L342.856 292.597L339.34 296.665Z" fill="#F94E4E"/>
<path d="M318.223 311.826H290.421C289.14 311.826 288.01 310.605 288.01 309.123V240.517C288.01 239.035 289.065 237.815 290.421 237.815H318.223C319.504 237.815 320.634 239.035 320.634 240.517V309.036C320.559 310.605 319.504 311.826 318.223 311.826Z" fill="#84AAD8"/>
<path d="M311.668 295.35C313.552 295.35 315.059 293.781 315.285 291.689H308.127C308.353 293.781 309.86 295.35 311.668 295.35Z" fill="#31DD83"/>
<path d="M311.668 286.981C309.785 286.981 308.278 288.55 308.052 290.642H315.21C315.059 288.55 313.552 286.981 311.668 286.981Z" fill="#31DD83"/>
<path d="M311.668 305.985C313.552 305.985 315.059 304.416 315.285 302.324H308.127C308.353 304.416 309.86 305.985 311.668 305.985Z" fill="#31DD83"/>
<path d="M311.668 297.616C309.785 297.616 308.278 299.186 308.052 301.278H315.21C315.059 299.273 313.552 297.616 311.668 297.616Z" fill="#31DD83"/>
<path d="M311.668 243.045C309.785 243.045 308.278 244.614 308.052 246.707H315.21C315.059 244.702 313.552 243.045 311.668 243.045Z" fill="#31DD83"/>
<path d="M311.668 283.93C313.552 283.93 315.059 282.361 315.285 280.269H308.127C308.353 282.274 309.86 283.93 311.668 283.93Z" fill="#31DD83"/>
<path d="M311.668 273.295C313.552 273.295 315.059 271.726 315.285 269.633H308.127C308.353 271.638 309.86 273.295 311.668 273.295Z" fill="#31DD83"/>
<path d="M311.668 253.681C309.785 253.681 308.278 255.25 308.052 257.342H315.21C315.059 255.337 313.552 253.681 311.668 253.681Z" fill="#31DD83"/>
<path d="M311.668 251.414C313.552 251.414 315.059 249.845 315.285 247.753H308.127C308.353 249.845 309.86 251.414 311.668 251.414Z" fill="#31DD83"/>
<path d="M311.668 275.561C309.785 275.561 308.278 277.13 308.052 279.223H315.21C315.059 277.13 313.552 275.561 311.668 275.561Z" fill="#31DD83"/>
<path d="M311.668 264.926C309.785 264.926 308.278 266.495 308.052 268.587H315.21C315.059 266.495 313.552 264.926 311.668 264.926Z" fill="#31DD83"/>
<path d="M311.668 262.049C313.552 262.049 315.059 260.48 315.285 258.388H308.127C308.353 260.48 309.86 262.049 311.668 262.049Z" fill="#31DD83"/>
<path d="M308.127 269.633C308.353 271.726 309.86 273.295 311.744 273.295C313.627 273.295 315.134 271.726 315.36 269.633H308.127Z" fill="#31DD83"/>
<path d="M311.668 264.926C309.785 264.926 308.278 266.495 308.052 268.587H315.21C315.059 266.495 313.552 264.926 311.668 264.926Z" fill="#31DD83"/>
<path d="M308.127 280.269C308.353 282.361 309.86 283.93 311.744 283.93C313.627 283.93 315.134 282.361 315.36 280.269H308.127Z" fill="#31DD83"/>
<path d="M311.668 275.561C309.785 275.561 308.278 277.13 308.052 279.223H315.21C315.059 277.13 313.552 275.561 311.668 275.561Z" fill="#31DD83"/>
<path d="M315.285 246.707C315.059 244.614 313.552 243.045 311.668 243.045C309.785 243.045 308.278 244.614 308.052 246.707H315.285Z" fill="#31DD83"/>
<path d="M308.127 247.753C308.353 249.845 309.86 251.414 311.744 251.414C313.627 251.414 315.134 249.845 315.36 247.753H308.127Z" fill="#31DD83"/>
<path d="M311.668 253.681C309.785 253.681 308.278 255.25 308.052 257.342H315.21C315.059 255.337 313.552 253.681 311.668 253.681Z" fill="#31DD83"/>
<path d="M308.127 258.475C308.353 260.567 309.86 262.136 311.744 262.136C313.627 262.136 315.134 260.567 315.36 258.475H308.127Z" fill="#31DD83"/>
<path d="M308.127 291.689C308.353 293.781 309.86 295.35 311.744 295.35C313.627 295.35 315.134 293.781 315.36 291.689H308.127Z" fill="#31DD83"/>
<path d="M311.668 286.981C309.785 286.981 308.278 288.55 308.052 290.642H315.21C315.059 288.55 313.552 286.981 311.668 286.981Z" fill="#31DD83"/>
<path d="M308.127 302.324C308.353 304.416 309.86 305.985 311.744 305.985C313.627 305.985 315.134 304.416 315.36 302.324H308.127Z" fill="#31DD83"/>
<path d="M308.127 301.278H315.285C315.059 299.186 313.552 297.616 311.668 297.616C309.785 297.616 308.353 299.273 308.127 301.278Z" fill="#31DD83"/>
<path d="M297.504 295.96C299.387 295.96 300.894 294.391 301.12 292.299H293.963C294.113 294.391 295.62 295.96 297.504 295.96Z" fill="#31DD83"/>
<path d="M297.504 287.591C295.62 287.591 294.113 289.16 293.887 291.253H301.045C300.819 289.16 299.312 287.591 297.504 287.591Z" fill="#31DD83"/>
<path d="M297.504 306.595C299.387 306.595 300.894 305.026 301.12 302.934H293.963C294.113 305.026 295.62 306.595 297.504 306.595Z" fill="#31DD83"/>
<path d="M297.504 298.227C295.62 298.227 294.113 299.796 293.887 301.888H301.045C300.819 299.883 299.312 298.227 297.504 298.227Z" fill="#31DD83"/>
<path d="M297.504 243.655C295.62 243.655 294.113 245.225 293.887 247.317H301.045C300.819 245.312 299.312 243.655 297.504 243.655Z" fill="#31DD83"/>
<path d="M297.504 284.54C299.387 284.54 300.894 282.971 301.12 280.879H293.963C294.113 282.884 295.62 284.54 297.504 284.54Z" fill="#31DD83"/>
<path d="M297.504 273.905C299.387 273.905 300.894 272.336 301.12 270.244H293.963C294.113 272.249 295.62 273.905 297.504 273.905Z" fill="#31DD83"/>
<path d="M297.504 254.291C295.62 254.291 294.113 255.86 293.887 257.952H301.045C300.819 255.947 299.312 254.291 297.504 254.291Z" fill="#31DD83"/>
<path d="M297.504 252.024C299.387 252.024 300.894 250.455 301.12 248.363H293.963C294.113 250.455 295.62 252.024 297.504 252.024Z" fill="#31DD83"/>
<path d="M297.504 276.171C295.62 276.171 294.113 277.741 293.887 279.833H301.045C300.819 277.741 299.312 276.171 297.504 276.171Z" fill="#31DD83"/>
<path d="M297.504 265.536C295.62 265.536 294.113 267.105 293.887 269.198H301.045C300.819 267.105 299.312 265.536 297.504 265.536Z" fill="#31DD83"/>
<path d="M297.504 262.659C299.387 262.659 300.894 261.09 301.12 258.998H293.963C294.113 261.09 295.62 262.659 297.504 262.659Z" fill="#31DD83"/>
<path d="M293.887 270.244C294.113 272.336 295.62 273.905 297.504 273.905C299.387 273.905 300.894 272.336 301.12 270.244H293.887Z" fill="#31DD83"/>
<path d="M297.504 265.536C295.62 265.536 294.113 267.105 293.887 269.198H301.045C300.819 267.105 299.312 265.536 297.504 265.536Z" fill="#31DD83"/>
<path d="M293.887 280.879C294.113 282.971 295.62 284.54 297.504 284.54C299.387 284.54 300.894 282.971 301.12 280.879H293.887Z" fill="#31DD83"/>
<path d="M297.504 276.171C295.62 276.171 294.113 277.741 293.887 279.833H301.045C300.819 277.741 299.312 276.171 297.504 276.171Z" fill="#31DD83"/>
<path d="M301.045 247.317C300.819 245.225 299.312 243.655 297.428 243.655C295.545 243.655 294.038 245.225 293.812 247.317H301.045Z" fill="#31DD83"/>
<path d="M293.887 248.363C294.113 250.455 295.62 252.024 297.504 252.024C299.387 252.024 300.894 250.455 301.12 248.363H293.887Z" fill="#31DD83"/>
<path d="M297.504 254.291C295.62 254.291 294.113 255.86 293.887 257.952H301.045C300.819 255.947 299.312 254.291 297.504 254.291Z" fill="#31DD83"/>
<path d="M293.887 259.085C294.113 261.178 295.62 262.747 297.504 262.747C299.387 262.747 300.894 261.178 301.12 259.085H293.887Z" fill="#31DD83"/>
<path d="M293.887 292.299C294.113 294.391 295.62 295.96 297.504 295.96C299.387 295.96 300.894 294.391 301.12 292.299H293.887Z" fill="#31DD83"/>
<path d="M297.504 287.591C295.62 287.591 294.113 289.16 293.887 291.253H301.045C300.819 289.16 299.312 287.591 297.504 287.591Z" fill="#31DD83"/>
<path d="M293.887 302.934C294.113 305.026 295.62 306.595 297.504 306.595C299.387 306.595 300.894 305.026 301.12 302.934H293.887Z" fill="#31DD83"/>
<path d="M293.887 301.888H301.045C300.819 299.796 299.312 298.227 297.428 298.227C295.545 298.227 294.113 299.883 293.887 301.888Z" fill="#31DD83"/>
<path d="M317.244 309.908H291.175C290.27 309.908 289.592 309.123 289.592 308.077V241.912C289.592 240.866 290.27 240.081 291.175 240.081H317.244C318.148 240.081 318.826 240.866 318.826 241.912V308.077C318.826 309.123 318.073 309.908 317.244 309.908ZM291.175 240.517C290.496 240.517 289.969 241.127 289.969 241.912V308.077C289.969 308.862 290.496 309.472 291.175 309.472H317.244C317.922 309.472 318.45 308.862 318.45 308.077V241.912C318.45 241.127 317.922 240.517 317.244 240.517H291.175Z" fill="#B3D1FB"/>
<path d="M304.209 309.821C304.134 309.821 303.983 309.734 303.983 309.559V240.256C303.983 240.169 304.059 239.994 304.209 239.994C304.36 239.994 304.435 240.081 304.435 240.256V309.559C304.36 309.734 304.285 309.821 304.209 309.821Z" fill="#B3D1FB"/>
<path d="M129.785 229.969H44.57L2 315.4L44.57 400.744H129.785L172.431 315.4L129.785 229.969Z" fill="#2E1C66"/>
<path d="M76.7422 250.978C76.5915 249.147 75.1599 247.753 73.427 247.753C71.6187 247.753 70.1872 249.235 70.0365 251.065L69.3584 262.747L77.4957 262.572L76.7422 250.978Z" fill="#FBFBFB"/>
<path d="M77.5709 262.485L69.3583 262.659L69.283 264.316L77.6463 264.054L77.5709 262.485Z" fill="#FBACC5"/>
<path d="M69.2831 264.316L67.7008 291.689C67.6255 292.56 67.9269 293.345 68.4543 293.955C68.9817 294.565 69.3584 295.35 69.3584 296.222V296.832C69.3584 300.144 68.3789 303.457 66.2693 305.724C64.2349 307.903 62.9541 311.041 62.9541 314.528V363.259C62.9541 366.135 64.9884 368.489 67.4748 368.489H79.0026L76.1395 264.141L69.2831 264.316Z" fill="#F9E9E1"/>
<path d="M80.8864 305.724C78.7767 303.457 77.7972 300.144 77.7972 296.832V296.222C77.7972 295.35 78.1739 294.565 78.7013 293.955C79.2288 293.345 79.5301 292.56 79.4548 291.689L77.5712 264.141L74.9341 264.229L76.5164 368.576H79.5302C82.0166 368.576 84.0509 366.223 84.0509 363.346V314.615C84.2016 311.041 82.9207 307.903 80.8864 305.724Z" fill="#FBC9AC"/>
<path d="M65.2146 314.005V360.208C65.2146 363.084 66.8722 365.438 68.9819 365.438H78.9274C81.0371 365.438 82.6947 363.084 82.6947 360.208V314.005H65.2146Z" fill="#70BEF2"/>
<path d="M77.4206 359.859C75.6877 359.859 74.2561 358.203 74.2561 356.198V324.292C74.2561 322.287 75.6877 320.63 77.4206 320.63C79.1535 320.63 80.5851 322.287 80.5851 324.292V356.198C80.5851 358.203 79.1535 359.859 77.4206 359.859Z" fill="#FBFBFB"/>
<path d="M78.0985 339.634C77.4204 339.634 76.8176 339.024 76.8176 338.24V328.825C76.8176 328.04 77.3451 327.43 78.0985 327.43C78.7766 327.43 79.3794 328.04 79.3794 328.825V338.24C79.3794 339.024 78.7766 339.634 78.0985 339.634Z" fill="#BED0FB"/>
<path d="M78.3243 357.156C77.6462 357.156 77.0435 356.546 77.0435 355.762V352.275C77.0435 351.49 77.5708 350.88 78.3243 350.88C79.0024 350.88 79.6052 351.49 79.6052 352.275V355.762C79.5298 356.546 79.0024 357.156 78.3243 357.156Z" fill="#BED0FB"/>
<path d="M106.052 278.525C105.976 277.13 104.846 275.997 103.49 275.997C102.134 275.997 101.003 277.13 100.928 278.525L100.401 287.417L106.654 287.243L106.052 278.525Z" fill="#FBFBFB"/>
<path d="M106.654 287.33L100.401 287.504L100.325 288.725L106.73 288.55L106.654 287.33Z" fill="#FBACC5"/>
<path d="M100.325 288.725L99.1197 309.646C99.0444 310.344 99.3457 310.954 99.7225 311.39C100.175 311.826 100.476 312.436 100.476 313.133V313.656C100.476 316.185 99.7225 318.713 98.1402 320.456C96.558 322.112 95.6538 324.553 95.6538 327.256V364.566C95.6538 366.746 97.2361 368.576 99.1197 368.576H107.935L105.75 288.725H100.325Z" fill="#F9E9E1"/>
<path d="M109.216 320.456C107.634 318.713 106.88 316.185 106.88 313.656V313.133C106.88 312.436 107.181 311.913 107.558 311.39C107.935 310.954 108.236 310.344 108.161 309.646L106.729 288.55L104.695 288.637L105.901 368.489H108.236C110.12 368.489 111.702 366.658 111.702 364.479V327.168C111.702 324.553 110.798 322.112 109.216 320.456Z" fill="#FBC9AC"/>
<path d="M97.1606 326.733V362.125C97.1606 364.305 98.4415 366.135 100.024 366.135H107.634C109.216 366.135 110.497 364.305 110.497 362.125V326.733H97.1606Z" fill="#70BEF2"/>
<path d="M106.503 361.951C105.147 361.951 104.092 360.643 104.092 359.161V334.753C104.092 333.184 105.222 331.963 106.503 331.963C107.784 331.963 108.914 333.271 108.914 334.753V359.161C108.99 360.643 107.86 361.951 106.503 361.951Z" fill="#FBFBFB"/>
<path d="M107.106 346.434C106.579 346.434 106.127 345.911 106.127 345.301V338.065C106.127 337.455 106.579 336.932 107.106 336.932C107.634 336.932 108.086 337.455 108.086 338.065V345.301C108.011 345.911 107.559 346.434 107.106 346.434Z" fill="#BED0FB"/>
<path d="M107.182 359.859C106.654 359.859 106.202 359.336 106.202 358.726V356.023C106.202 355.413 106.654 354.89 107.182 354.89C107.709 354.89 108.161 355.413 108.161 356.023V358.726C108.161 359.336 107.709 359.859 107.182 359.859Z" fill="#BED0FB"/>
<path d="M129.785 229.969H44.57L2 315.4L44.57 400.744H129.785L172.431 315.4L129.785 229.969Z" stroke="white" stroke-width="2.2622" stroke-miterlimit="10"/>
<path d="M166.328 327.081H135.888L120.668 357.592L135.888 388.103H166.328L181.547 357.592L166.328 327.081Z" fill="white"/>
<path d="M153.31 368.28L140.257 353.178L135.089 359.157L148.142 374.259L153.31 368.28Z" fill="#2CD627"/>
<path d="M148.163 374.244L168.089 351.19L162.921 345.211L142.996 368.264L148.163 374.244Z" fill="#2CD627"/>
<path d="M465.373 11.4232H384.829L344.519 92.2337L384.829 173.044H465.373L505.682 92.2337L465.373 11.4232Z" fill="#2E1C66"/>
<path d="M465.373 11.4232H384.829L344.519 92.2337L384.829 173.044H465.373L505.682 92.2337L465.373 11.4232Z" stroke="white" stroke-width="2.1398" stroke-miterlimit="10"/>
<path d="M499.956 103.305H471.174L456.783 132.16L471.174 161.014H499.956L514.347 132.16L499.956 103.305Z" fill="white"/>
<path d="M487.712 142.262L475.352 127.961L470.451 133.632L482.811 147.933L487.712 142.262Z" fill="#547BF7"/>
<path d="M482.761 147.923L501.621 126.102L496.72 120.431L477.86 142.252L482.761 147.923Z" fill="#547BF7"/>
<path d="M395.98 117.95C395.98 119.171 396.809 120.13 397.863 120.13H452.037C453.091 120.13 453.92 119.171 453.92 117.95V60.5023C453.92 59.2819 453.091 58.323 452.037 58.323H397.863C396.809 58.323 395.98 59.2819 395.98 60.5023V117.95Z" fill="white"/>
<path d="M452.037 58.323C453.091 58.323 453.92 59.2819 453.92 60.5023V117.95C453.92 119.171 453.091 120.13 452.037 120.13H397.863C396.809 120.13 395.98 119.171 395.98 117.95C395.98 119.171 396.884 121.524 399.069 121.524H452.715C453.92 121.524 455.126 120.13 455.126 118.735V61.8099C455.126 59.2819 453.694 58.323 452.037 58.323Z" fill="#ABAC9F"/>
<path d="M447.139 66.1686H402.836V105.048H447.139V66.1686Z" fill="#167247"/>
<path d="M447.139 66.1686H402.836V105.048H447.139V66.1686Z" fill="#00642E"/>
<path d="M446.536 66.7789L403.364 104.525V66.7789H446.536Z" fill="#0C6C3F"/>
<path d="M446.536 66.7789V104.525H403.364L446.536 66.7789Z" fill="#1C764C"/>
<path d="M407.507 66.7789H406.98V104.438H407.507V66.7789Z" fill="#277D54"/>
<path d="M411.953 66.7789H411.425V104.438H411.953V66.7789Z" fill="#277D54"/>
<path d="M416.398 66.7789H415.871V104.438H416.398V66.7789Z" fill="#277D54"/>
<path d="M420.768 66.7789H420.241V104.438H420.768V66.7789Z" fill="#277D54"/>
<path d="M425.214 66.7789H424.686V104.438H425.214V66.7789Z" fill="#277D54"/>
<path d="M429.659 66.7789H429.131V104.438H429.659V66.7789Z" fill="#277D54"/>
<path d="M434.104 66.7789H433.577V104.438H434.104V66.7789Z" fill="#277D54"/>
<path d="M438.474 66.7789H437.947V104.438H438.474V66.7789Z" fill="#277D54"/>
<path d="M442.92 66.7789H442.392V104.438H442.92V66.7789Z" fill="#277D54"/>
<path d="M442.844 85.9572L442.091 82.1215C442.091 81.9472 441.94 81.86 441.865 81.86C441.714 81.86 441.639 81.9472 441.639 82.1215L439.303 92.844L437.269 75.6706C437.269 75.4963 437.118 75.4091 437.043 75.4091C436.892 75.4091 436.817 75.4963 436.741 75.6706L435.008 86.0444H422.577C422.577 86.0444 422.577 86.0444 422.501 86.0444C422.501 86.0444 422.501 86.0444 422.426 86.0444C422.426 86.0444 422.426 86.0444 422.35 86.0444C422.35 86.0444 422.35 86.0444 422.275 86.0444C422.275 86.0444 422.275 86.0444 422.275 86.1315C422.275 86.1315 422.275 86.1315 422.275 86.2187L421.22 89.6185L419.563 80.2037C419.563 80.0293 419.412 79.9422 419.337 79.9422C419.186 79.9422 419.111 80.0293 419.035 80.2037L417.528 86.0444H409.843L409.09 82.2087C409.09 82.0344 408.939 81.9472 408.864 81.9472C408.713 81.9472 408.638 82.0344 408.638 82.2087L406.302 92.9311L404.268 75.7578C404.268 75.5834 404.117 75.4963 404.042 75.4963C403.891 75.4963 403.816 75.5834 403.816 75.7578L403.364 78.2859V81.1626L404.042 77.5885L406.076 94.6746C406.076 94.849 406.227 94.9361 406.302 94.9361C406.453 94.9361 406.528 94.849 406.528 94.6746L408.939 83.6907L409.542 86.5674C409.542 86.5674 409.542 86.5674 409.542 86.6546C409.542 86.6546 409.542 86.6546 409.542 86.7418C409.542 86.7418 409.542 86.7418 409.617 86.7418C409.617 86.7418 409.617 86.7418 409.693 86.7418C409.693 86.7418 409.693 86.7418 409.768 86.7418H417.83C417.83 86.7418 417.83 86.7418 417.905 86.7418C417.905 86.7418 417.905 86.7418 417.98 86.7418C418.056 86.7418 417.98 86.7418 418.056 86.7418C418.056 86.7418 418.056 86.7418 418.131 86.7418C418.131 86.7418 418.131 86.7418 418.131 86.6546C418.131 86.6546 418.131 86.6546 418.131 86.5674L419.337 81.6857L420.994 91.0133C420.994 91.1876 421.145 91.2748 421.22 91.2748C421.296 91.2748 421.446 91.1877 421.446 91.1005L422.727 86.8289H435.084H435.159C435.159 86.8289 435.159 86.8289 435.235 86.8289C435.235 86.8289 435.235 86.8289 435.31 86.8289C435.31 86.8289 435.31 86.8289 435.31 86.7418C435.31 86.7418 435.31 86.7418 435.31 86.6546L436.817 77.85L438.776 94.7618C438.776 94.9361 438.926 95.0233 439.002 95.0233C439.152 95.0233 439.228 94.9361 439.228 94.7618L441.639 83.7778L442.242 86.6546C442.242 86.6546 442.242 86.6546 442.242 86.7418C442.242 86.7418 442.242 86.7418 442.242 86.8289C442.242 86.8289 442.242 86.8289 442.317 86.8289C442.317 86.8289 442.317 86.8289 442.392 86.8289C442.392 86.8289 442.392 86.8289 442.468 86.8289H446.386V86.2187H442.844V85.9572Z" fill="#4DD67E"/>
<path d="M445.632 113.33C445.632 114.55 444.728 115.596 443.673 115.596C442.618 115.596 441.714 114.55 441.714 113.33C441.714 112.109 442.618 111.063 443.673 111.063C444.803 111.063 445.632 112.109 445.632 113.33Z" fill="#A5AE9D"/>
<path d="M445.406 113.156C445.406 114.289 444.577 115.248 443.598 115.248C442.618 115.248 441.79 114.289 441.79 113.156C441.79 112.022 442.618 111.063 443.598 111.063C444.577 111.063 445.406 112.022 445.406 113.156Z" fill="#E5E8E3"/>
<path d="M439.303 113.33C439.303 114.55 438.399 115.596 437.344 115.596C436.289 115.596 435.385 114.55 435.385 113.33C435.385 112.109 436.289 111.063 437.344 111.063C438.399 111.063 439.303 112.109 439.303 113.33Z" fill="#A5AE9D"/>
<path d="M439.002 113.156C439.002 114.289 438.173 115.248 437.194 115.248C436.214 115.248 435.385 114.289 435.385 113.156C435.385 112.022 436.214 111.063 437.194 111.063C438.173 111.063 439.002 112.022 439.002 113.156Z" fill="#E5E8E3"/>
<path d="M432.899 113.33C432.899 114.55 431.995 115.596 430.94 115.596C429.885 115.596 428.981 114.55 428.981 113.33C428.981 112.109 429.885 111.063 430.94 111.063C432.07 111.063 432.899 112.109 432.899 113.33Z" fill="#A5AE9D"/>
<path d="M432.673 113.156C432.673 114.289 431.844 115.248 430.865 115.248C429.885 115.248 429.056 114.289 429.056 113.156C429.056 112.022 429.885 111.063 430.865 111.063C431.844 111.063 432.673 112.022 432.673 113.156Z" fill="#E5E8E3"/>
<path d="M404.192 113.243C404.192 113.766 404.569 114.202 405.021 114.202V112.371C404.494 112.284 404.192 112.72 404.192 113.243Z" fill="#DC4844"/>
<path d="M404.946 112.284V114.115C405.398 114.115 405.774 113.679 405.774 113.156C405.774 112.72 405.398 112.284 404.946 112.284Z" fill="#A12E2A"/>
<path d="M407.809 113.243C407.809 113.766 408.186 114.202 408.638 114.202V112.371C408.11 112.284 407.809 112.72 407.809 113.243Z" fill="#1CA73F"/>
<path d="M408.562 112.284V114.115C409.014 114.115 409.391 113.679 409.391 113.156C409.391 112.72 409.014 112.284 408.562 112.284Z" fill="#0C6C3F"/>
<path d="M176.725 63.379H122.251L94.9758 117.95L122.251 172.521H176.725L203.925 117.95L176.725 63.379Z" fill="#2E1C66"/>
<path d="M176.725 63.379H122.251L94.9758 117.95L122.251 172.521H176.725L203.925 117.95L176.725 63.379Z" stroke="white" stroke-width="1.4463" stroke-miterlimit="10"/>
<path d="M200.082 125.447H180.568L170.849 144.887L180.568 164.414H200.082L209.802 144.887L200.082 125.447Z" fill="white"/>
<path d="M191.795 151.76L183.43 142.082L180.127 145.904L188.492 155.582L191.795 151.76Z" fill="#547BF7"/>
<path d="M188.469 155.556L201.202 140.824L197.899 137.003L185.166 151.735L188.469 155.556Z" fill="#547BF7"/>
<path d="M141.388 130.59H137.847V150.292H141.388V130.59Z" fill="#C3C9C3"/>
<path d="M144.176 150.292H134.984V152.471H144.176V150.292Z" fill="#D7DBD7"/>
<path d="M140.107 93.1055H139.128V80.4652L140.107 77.7628V93.1055Z" fill="#979A90"/>
<path d="M138.374 97.2027H137.847V98.3359H139.58V97.2027H138.374Z" fill="#55CAAE"/>
<path d="M141.388 97.2027H140.861H139.58V98.3359H141.388V97.2027Z" fill="#2ABD99"/>
<path d="M140.861 97.2027L140.559 93.1055H139.58V97.2027H140.861Z" fill="#2ABD99"/>
<path d="M139.58 93.1055H138.676L138.374 97.2027H139.58V93.1055Z" fill="#55CAAE"/>
<path d="M139.58 98.3359H134.984V130.59H139.58V98.3359Z" fill="#DFE9E2"/>
<path d="M144.176 98.336H139.58V130.59H144.176V98.336Z" fill="#C3CEC3"/>
<path d="M139.58 121.437H135.964V125.534H139.58V121.437Z" fill="#626262"/>
<path d="M139.58 125.621H135.964V126.755H137.847H139.58V125.621Z" fill="#C6CAC6"/>
<path d="M139.58 125.621V126.755H141.388H143.197V125.621H139.58Z" fill="#B3B9B3"/>
<path d="M143.197 121.437H139.58V125.534H143.197V121.437Z" fill="#515151"/>
<path d="M139.58 126.755H137.847V130.59H139.58V126.755Z" fill="#B3B9B3"/>
<path d="M141.313 126.755H139.58V130.59H141.313V126.755Z" fill="#9EA69E"/>
<path d="M141.464 101.038H137.696V101.823H141.464V101.038Z" fill="#A3B1A3"/>
<path d="M141.464 104.525H137.696V105.31H141.464V104.525Z" fill="#A3B1A3"/>
<path d="M141.464 108.012H137.696V108.797H141.464V108.012Z" fill="#A3B1A3"/>
<path d="M141.464 111.412H137.696V112.197H141.464V111.412Z" fill="#A3B1A3"/>
<path d="M141.464 114.899H137.696V115.684H141.464V114.899Z" fill="#A3B1A3"/>
<path d="M141.464 118.386H137.696V119.171H141.464V118.386Z" fill="#A3B1A3"/>
<path d="M156.759 130.59H153.218V150.292H156.759V130.59Z" fill="#C3C9C3"/>
<path d="M159.547 150.292H150.354V152.471H159.547V150.292Z" fill="#D7DBD7"/>
<path d="M155.478 93.1055H154.498V80.4652L155.478 77.7628V93.1055Z" fill="#979A90"/>
<path d="M153.745 97.2027H153.218V98.3359H154.951V97.2027H153.745Z" fill="#55CAAE"/>
<path d="M156.759 97.2027H156.232H154.951V98.3359H156.759V97.2027Z" fill="#2ABD99"/>
<path d="M156.232 97.2027L155.93 93.1055H154.951V97.2027H156.232Z" fill="#2ABD99"/>
<path d="M154.951 93.1055H154.047L153.745 97.2027H154.951V93.1055Z" fill="#55CAAE"/>
<path d="M154.951 98.3359H150.354V130.59H154.951V98.3359Z" fill="#DFE9E2"/>
<path d="M159.547 98.336H154.951V130.59H159.547V98.336Z" fill="#C3CEC3"/>
<path d="M154.951 121.437H151.334V125.534H154.951V121.437Z" fill="#626262"/>
<path d="M154.951 125.621H151.334V126.755H153.218H154.951V125.621Z" fill="#C6CAC6"/>
<path d="M154.95 125.621V126.755H156.759H158.567V125.621H154.95Z" fill="#B3B9B3"/>
<path d="M158.567 121.437H154.95V125.534H158.567V121.437Z" fill="#515151"/>
<path d="M154.951 126.755H153.218V130.59H154.951V126.755Z" fill="#B3B9B3"/>
<path d="M156.683 126.755H154.95V130.59H156.683V126.755Z" fill="#9EA69E"/>
<path d="M156.834 101.038H153.067V101.823H156.834V101.038Z" fill="#A3B1A3"/>
<path d="M156.834 104.525H153.067V105.31H156.834V104.525Z" fill="#A3B1A3"/>
<path d="M156.834 108.012H153.067V108.797H156.834V108.012Z" fill="#A3B1A3"/>
<path d="M156.834 111.412H153.067V112.197H156.834V111.412Z" fill="#A3B1A3"/>
<path d="M156.834 114.899H153.067V115.684H156.834V114.899Z" fill="#A3B1A3"/>
<path d="M156.834 118.386H153.067V119.171H156.834V118.386Z" fill="#A3B1A3"/>
<path d="M298.86 439.449H232.255L198.952 506.224L232.255 573H298.86L332.162 506.224L298.86 439.449Z" fill="#2E1C66"/>
<path d="M298.86 439.449H232.255L198.952 506.224L232.255 573H298.86L332.162 506.224L298.86 439.449Z" stroke="white" stroke-width="1.7689" stroke-miterlimit="10"/>
<path d="M327.415 515.291H303.606L291.702 539.176L303.606 563.062H327.415L339.32 539.176L327.415 515.291Z" fill="white"/>
<path d="M317.248 547.49L307.072 535.716L303.023 540.401L313.199 552.174L317.248 547.49Z" fill="#2CD627"/>
<path d="M313.25 552.251L328.806 534.252L324.757 529.567L309.201 547.566L313.25 552.251Z" fill="#2CD627"/>
<path d="M272.414 489.138H266.537V495.851H267.818V501.691H272.414H277.085V495.851H278.291V489.138H272.414Z" fill="#3A3A3A"/>
<path d="M289.658 458.947L277.627 468.551L282.162 476.157L294.194 466.552L289.658 458.947Z" fill="#414141"/>
<path d="M282.51 476.76L277.311 467.955L279.571 467.17L284.017 474.667L282.51 476.76Z" fill="#6A6A6A"/>
<path d="M290.399 457.274L288.848 458.511L294.325 467.696L295.876 466.458L290.399 457.274Z" fill="#343434"/>
<path d="M285.373 489.138H281.983H258.098V462.986H274.9L285.373 480.77V489.138Z" fill="white"/>
<path d="M253.05 522.526L240.618 525.752V497.158L246.796 473.36H253.05V522.526Z" fill="white"/>
<path d="M258.098 478.765H253.05V488.092H258.098V478.765Z" fill="#313131"/>
<path d="M265.783 483.472L263.372 485.739L260.584 484.431L260.132 480.944L262.468 478.765L265.255 480.072L265.783 483.472Z" fill="#414141"/>
<path d="M250.789 515.203L249.056 519.388L245.139 519.737L242.878 515.988L244.536 511.804L248.529 511.455L250.789 515.203Z" fill="#414141"/>
<path d="M280.626 479.549L279.421 482.949L276.482 484.431L273.468 482.949L272.263 479.549L273.468 476.149L276.482 474.667L279.421 476.149L280.626 479.549Z" fill="#414141"/>
<path d="M281.38 522.526H263.297L263.9 521.306H280.777L281.38 522.526Z" fill="#828282"/>
<path d="M285.222 522.526H253.05L240.618 525.752V528.803V529.762V534.992L241.824 536.474H286.277L287.558 535.079V533.684V532.725V530.982L285.222 522.526Z" fill="white"/>
<path d="M252.824 533.597L244.385 529.674H240.543V534.992L241.748 536.387H286.202L287.483 535.079V533.684H253.05C252.975 533.684 252.899 533.684 252.824 533.597Z" fill="#414141"/>
<path d="M253.125 532.725L244.687 528.803C244.611 528.803 244.536 528.715 244.461 528.715H240.543V529.674H244.385L252.824 533.597C252.899 533.597 252.975 533.684 253.05 533.684H287.558V532.725H253.125Z" fill="#BFC1B4"/>
<path d="M272.413 495.851H267.817V501.691H272.413V495.851Z" fill="#6E6E6E"/>
<path d="M277.01 495.851H272.414V501.691H277.01V495.851Z" fill="#535353"/>
<path d="M272.414 489.138H266.537V495.851H272.414V489.138Z" fill="#4F4F4F"/>
<path d="M278.291 489.138H272.414V495.851H278.291V489.138Z" fill="#3A3A3A"/>
<path d="M245.591 497.507V499.686L245.365 501.691L245.591 501.953H248.454L248.303 499.599L248.454 497.507L248.228 497.246L245.591 497.507Z" fill="#8F3F32"/>
<path d="M248.228 497.246H245.365V499.425H248.228V497.246Z" fill="#C74D41"/>
<path d="M248.228 499.512H245.365V501.691H248.228V499.512Z" fill="#D06A60"/>
<path d="M273.77 521.131C273.77 520.783 273.167 520.434 272.338 520.434C271.585 520.434 270.906 520.783 270.906 521.131C270.906 521.218 270.907 521.306 270.982 521.306H273.619C273.694 521.306 273.77 521.218 273.77 521.131Z" fill="#B4E1ED"/>
<path d="M272.263 464.555H258.098V462.986H274.9L272.263 464.555Z" fill="#EEF0E9"/>
<path d="M272.263 464.555L285.373 480.77L276.934 466.386L274.9 462.986L272.263 464.555Z" fill="#D6D7CA"/>
<path d="M542.827 306.247H471.777L436.214 377.468L471.777 448.689H542.827L578.39 377.468L542.827 306.247Z" fill="#2E1C66"/>
<path d="M542.827 306.247H471.777L436.214 377.468L471.777 448.689H542.827L578.39 377.468L542.827 306.247Z" stroke="white" stroke-width="1.8871" stroke-miterlimit="10"/>
<path d="M573.342 387.144H547.875L535.217 412.599L547.875 438.054H573.342L586 412.599L573.342 387.144Z" fill="white"/>
<path d="M520.073 345.911H495.134C494.154 345.911 493.326 344.952 493.326 343.819C493.326 342.686 494.154 341.727 495.134 341.727H520.073C521.053 341.727 521.881 342.686 521.881 343.819C521.881 344.952 521.053 345.911 520.073 345.911Z" fill="#F1B89D"/>
<path d="M528.21 367.879L523.991 356.023C523.614 354.89 522.635 354.105 521.505 354.105H520.073L521.806 359.074C522.032 359.772 522.183 360.556 522.183 361.254V398.216C522.183 400.918 520.45 403.01 518.415 403.01H486.62V406.933C486.62 409.635 488.353 411.728 490.387 411.728H524.669C526.779 411.728 528.436 409.548 528.436 406.933V370.058C528.587 369.361 528.436 368.576 528.21 367.879Z" fill="#7CB853"/>
<path d="M522.258 398.216V361.341C522.258 360.556 522.107 359.859 521.881 359.161L520.148 354.192H493.175C492.346 354.192 491.592 354.803 491.291 355.674L487.147 367.966C486.921 368.663 486.77 369.361 486.77 370.058V403.097H518.566C520.525 403.097 522.258 400.918 522.258 398.216Z" fill="#F7D63F"/>
<path d="M523.388 401.354H493.778C492.572 401.354 491.593 400.221 491.593 398.826V369.971C491.593 368.576 492.572 367.443 493.778 367.443H523.388C524.594 367.443 525.573 368.576 525.573 369.971V398.826C525.573 400.221 524.594 401.354 523.388 401.354ZM493.778 368.053C492.873 368.053 492.195 368.925 492.195 369.884V398.826C492.195 399.872 492.949 400.656 493.778 400.656H523.388C524.292 400.656 524.97 399.785 524.97 398.826V369.971C524.97 368.925 524.217 368.14 523.388 368.14H493.778V368.053Z" fill="#69A03E"/>
<path d="M521.655 349.659H493.25V354.105H521.655V349.659Z" fill="#69A03E"/>
<path d="M523.237 351.926H491.668V345.824C491.668 344.516 492.572 343.47 493.702 343.47H521.279C522.409 343.47 523.313 344.516 523.313 345.824V351.926H523.237Z" fill="#F9DCCA"/>
<path d="M493.401 345.388H492.873V352.013H493.401V345.388Z" fill="#F1B89D"/>
<path d="M495.586 345.388H495.058V352.013H495.586V345.388Z" fill="#F1B89D"/>
<path d="M497.771 345.388H497.244V352.013H497.771V345.388Z" fill="#F1B89D"/>
<path d="M499.956 345.388H499.429V352.013H499.956V345.388Z" fill="#F1B89D"/>
<path d="M502.141 345.388H501.614V352.013H502.141V345.388Z" fill="#F1B89D"/>
<path d="M504.326 345.388H503.799V352.013H504.326V345.388Z" fill="#F1B89D"/>
<path d="M506.511 345.388H505.983V352.013H506.511V345.388Z" fill="#F1B89D"/>
<path d="M508.696 345.388H508.168V352.013H508.696V345.388Z" fill="#F1B89D"/>
<path d="M510.956 345.388H510.429V352.013H510.956V345.388Z" fill="#F1B89D"/>
<path d="M513.141 345.388H512.614V352.013H513.141V345.388Z" fill="#F1B89D"/>
<path d="M515.326 345.388H514.799V352.013H515.326V345.388Z" fill="#F1B89D"/>
<path d="M517.511 345.388H516.984V352.013H517.511V345.388Z" fill="#F1B89D"/>
<path d="M519.696 345.388H519.169V352.013H519.696V345.388Z" fill="#F1B89D"/>
<path d="M521.881 345.388H521.354V352.013H521.881V345.388Z" fill="#F1B89D"/>
<path d="M517.436 397.954H495.284C494.606 397.954 494.154 397.344 494.154 396.646V372.848C494.154 372.063 494.682 371.54 495.284 371.54H517.436C518.114 371.54 518.566 372.15 518.566 372.848V396.646C518.641 397.344 518.114 397.954 517.436 397.954Z" fill="#FBFBFB"/>
<path d="M515.778 381.827H498.826C497.921 381.827 497.168 380.955 497.168 379.909V374.853C497.168 373.807 497.921 372.935 498.826 372.935H515.778C516.682 372.935 517.436 373.807 517.436 374.853V379.909C517.511 380.955 516.758 381.827 515.778 381.827ZM498.826 373.545C498.223 373.545 497.695 374.155 497.695 374.853V379.909C497.695 380.606 498.223 381.217 498.826 381.217H515.778C516.381 381.217 516.908 380.606 516.908 379.909V374.853C516.908 374.155 516.381 373.545 515.778 373.545H498.826Z" fill="#99D46C"/>
<path d="M513.819 375.289H509.299C509.148 375.289 508.997 375.114 508.997 374.94C508.997 374.766 509.148 374.591 509.299 374.591H513.819C513.97 374.591 514.121 374.766 514.121 374.94C514.121 375.201 513.97 375.289 513.819 375.289Z" fill="#99D46C"/>
<path d="M507.49 375.289H499.428C499.278 375.289 499.127 375.114 499.127 374.94C499.127 374.766 499.278 374.591 499.428 374.591H507.415C507.566 374.591 507.716 374.766 507.716 374.94C507.716 375.201 507.641 375.289 507.49 375.289Z" fill="#99D46C"/>
<path d="M513.895 376.771H499.428C499.278 376.771 499.127 376.596 499.127 376.422C499.127 376.248 499.278 376.073 499.428 376.073H513.819C513.97 376.073 514.121 376.248 514.121 376.422C514.121 376.596 514.045 376.771 513.895 376.771Z" fill="#99D46C"/>
<path d="M513.895 378.253H507.641C507.49 378.253 507.34 378.078 507.34 377.904C507.34 377.73 507.49 377.555 507.641 377.555H513.895C514.045 377.555 514.196 377.73 514.196 377.904C514.196 378.078 514.045 378.253 513.895 378.253Z" fill="#99D46C"/>
<path d="M506.134 378.253H499.428C499.278 378.253 499.127 378.078 499.127 377.904C499.127 377.73 499.278 377.555 499.428 377.555H506.134C506.285 377.555 506.436 377.73 506.436 377.904C506.436 378.078 506.285 378.253 506.134 378.253Z" fill="#99D46C"/>
<path d="M511.71 379.735H499.504C499.353 379.735 499.203 379.56 499.203 379.386C499.203 379.212 499.353 379.037 499.504 379.037H511.71C511.861 379.037 512.011 379.212 512.011 379.386C512.011 379.56 511.861 379.735 511.71 379.735Z" fill="#99D46C"/>
<path d="M500.709 396.123H496.867C496.264 396.123 495.737 395.513 495.737 394.816V391.59C495.737 390.893 496.264 390.283 496.867 390.283H500.709C501.312 390.283 501.84 390.893 501.84 391.59V394.816C501.84 395.6 501.312 396.123 500.709 396.123Z" fill="#BAE695"/>
<path d="M513.367 395.775C511.032 395.775 509.148 393.595 509.148 390.893C509.148 388.191 511.032 386.011 513.367 386.011C515.703 386.011 517.587 388.191 517.587 390.893C517.587 393.595 515.703 395.775 513.367 395.775ZM513.367 386.621C511.333 386.621 509.675 388.539 509.675 390.893C509.675 393.247 511.333 395.164 513.367 395.164C515.402 395.164 517.059 393.247 517.059 390.893C517.059 388.539 515.402 386.621 513.367 386.621Z" fill="#BAE695"/>
<path d="M554.466 424.736L571.089 405.504L566.773 400.511L550.151 419.743L554.466 424.736Z" fill="#F94E4E"/>
<path d="M550.152 405.527L566.775 424.759L571.09 419.767L554.468 400.534L550.152 405.527Z" fill="#F94E4E"/>
<path d="M92.3389 34.6115C98.0397 34.6115 102.661 29.2645 102.661 22.6687C102.661 16.0728 98.0397 10.7258 92.3389 10.7258C86.6381 10.7258 82.0166 16.0728 82.0166 22.6687C82.0166 29.2645 86.6381 34.6115 92.3389 34.6115Z" stroke="white" stroke-width="1.2622" stroke-miterlimit="10"/>
<path d="M124.737 34.6115C130.438 34.6115 135.06 29.2645 135.06 22.6687C135.06 16.0728 130.438 10.7258 124.737 10.7258C119.036 10.7258 114.415 16.0728 114.415 22.6687C114.415 29.2645 119.036 34.6115 124.737 34.6115Z" stroke="white" stroke-width="1.2622" stroke-miterlimit="10"/>
<path d="M157.135 34.6115C162.836 34.6115 167.458 29.2645 167.458 22.6687C167.458 16.0728 162.836 10.7258 157.135 10.7258C151.435 10.7258 146.813 16.0728 146.813 22.6687C146.813 29.2645 151.435 34.6115 157.135 34.6115Z" stroke="white" stroke-width="1.2622" stroke-miterlimit="10"/>
</svg>
