<svg width="80" height="72" viewBox="0 0 80 72" fill="none" xmlns="http://www.w3.org/2000/svg">
<path d="M3.33333 3H16.6667L25.6 43.17C25.9048 44.5512 26.7397 45.7919 27.9585 46.6749C29.1773 47.5579 30.7023 48.027 32.2667 48H64.6667C66.231 48.027 67.7561 47.5579 68.9748 46.6749C70.1936 45.7919 71.0285 44.5512 71.3333 43.17L76.6667 18H20M33.3333 63C33.3333 64.6569 31.8409 66 30 66C28.159 66 26.6667 64.6569 26.6667 63C26.6667 61.3431 28.159 60 30 60C31.8409 60 33.3333 61.3431 33.3333 63ZM70 63C70 64.6569 68.5076 66 66.6667 66C64.8257 66 63.3333 64.6569 63.3333 63C63.3333 61.3431 64.8257 60 66.6667 60C68.5076 60 70 61.3431 70 63Z" stroke="#1E1E1E" stroke-width="4" stroke-linecap="round" stroke-linejoin="round"/>
</svg>
